<?xml version="1.0" standalone="no"?>
<!DOCTYPE svg PUBLIC "-//W3C//DTD SVG 20010904//EN"
 "http://www.w3.org/TR/2001/REC-SVG-20010904/DTD/svg10.dtd">
<svg version="1.0" xmlns="http://www.w3.org/2000/svg"
 width="425.000000pt" height="195.000000pt" viewBox="0 0 425.000000 195.000000"
 preserveAspectRatio="xMidYMid meet">

<g transform="translate(0.000000,195.000000) scale(0.100000,-0.100000)"
fill="#B08035" stroke="none">
<path d="M2512 1313 c-45 -170 -132 -490 -192 -713 -60 -223 -110 -411 -110
-418 0 -9 10 -12 31 -10 l32 3 43 160 c106 398 335 1252 340 1268 4 14 -1 17
-28 17 l-34 0 -82 -307z"/>
<path d="M2060 1060 c0 -286 -4 -478 -11 -509 -26 -122 -107 -186 -234 -186
-118 1 -202 57 -227 151 -11 41 -14 44 -46 44 l-34 0 7 -42 c23 -141 152 -226
329 -216 91 5 142 26 195 80 87 88 91 120 91 673 l0 465 -35 0 -35 0 0 -460z"/>
<path d="M852 1159 c-331 -199 -333 -201 -330 -232 3 -30 21 -42 333 -229 182
-108 334 -197 338 -197 5 -1 7 15 5 35 -3 36 -3 37 -300 212 -163 97 -295 179
-292 183 2 4 82 53 177 110 451 268 412 241 415 282 2 20 0 37 -5 37 -4 -1
-158 -91 -341 -201z"/>
<path d="M2900 1325 l0 -35 295 -175 c162 -96 296 -179 299 -183 2 -4 -129
-87 -292 -184 -296 -175 -297 -176 -300 -212 -2 -20 0 -36 4 -36 18 0 666 396
675 412 6 11 8 26 5 33 -4 12 -666 415 -681 415 -3 0 -5 -16 -5 -35z"/>
</g>
</svg>
